<?xml version="1.0" encoding="UTF-8"?>
<!DOCTYPE svg PUBLIC "-//W3C//DTD SVG 1.1//EN" "http://www.w3.org/Graphics/SVG/1.1/DTD/svg11.dtd">
<!-- Creator: CorelDRAW 2020 (64-Bit) -->
<svg xmlns="http://www.w3.org/2000/svg" xml:space="preserve" width="23.1717mm" height="25.3879mm" version="1.1" style="shape-rendering:geometricPrecision; text-rendering:geometricPrecision; image-rendering:optimizeQuality; fill-rule:evenodd; clip-rule:evenodd"
viewBox="0 0 8.74 9.57"
 xmlns:xlink="http://www.w3.org/1999/xlink"
 xmlns:xodm="http://www.corel.com/coreldraw/odm/2003">
 <defs>
  <style type="text/css">
   <![CDATA[
    .fil0 {fill:#2B2A29;fill-rule:nonzero}
   ]]>
  </style>
 </defs>
 <g id="Слой_x0020_1">
  <metadata id="CorelCorpID_0Corel-Layer"/>
  <path class="fil0" d="M8.13 4.18c0.34,0 0.61,0.27 0.61,0.61 0,0.34 -0.27,0.61 -0.61,0.61l-6.05 0 3.14 3.14c0.24,0.24 0.24,0.62 0,0.86 -0.24,0.24 -0.62,0.24 -0.86,0l-4.17 -4.17 -0 -0 -0.01 -0.01 -0 -0 -0 -0 -0.01 -0.01 -0 -0 -0 -0 -0 -0.01 -0 -0 -0 -0 -0 -0.01 -0 -0 -0 -0 -0 -0.01 -0 -0 -0 -0 -0 -0.01 -0 -0 -0 -0.01 -0 -0.01 -0 -0 -0 -0.01 -0 -0.01 0 -0 -0 -0.01 -0 -0.01 -0 -0 -0 -0.01 -0 -0.01 0 -0 -0 -0.01 -0 -0.01 -0 -0.01 -0 -0.01 -0 -0 -0 -0.01 -0 -0.01 -0 -0 -0 -0.01 -0 -0.01 -0 -0 -0 -0.01 -0 -0.01 -0 -0 -0 -0.01 -0 -0 -0 -0 -0 -0.01 -0 -0 -0 -0 -0 -0.01 -0 -0 -0 -0 -0 -0.01 -0 -0 -0 -0 -0 -0.01 -0 -0 -0 -0 -0 -0.01 -0 -0 -0 -0 -0 -0.01 -0 -0 -0 -0 -0 -0.01 -0 -0 -0 -0 -0 -0.01 -0 -0 -0 -0 -0 -0.01 -0 -0 -0 -0 -0 -0.01 -0 -0 -0 -0.01 -0 -0.01 -0 -0 -0 -0.01 -0 -0.01 -0 -0 -0 -0.01 -0 -0.01 0 -0 -0 -0.01 -0 -0.01 0 -0 -0 -0.01 -0 -0.01 0 -0 -0 -0.01 0 -0.01 0 -0 -0 -0.01 0 -0.01 0 -0.01 0 -0.01 0 -0 0 -0.01 0 -0.01 0 -0 0 -0.01 0 -0.01 0 -0 0 -0.01 0 -0.01 0 -0 0 -0.01 0 -0.01 0 -0 0 -0.01 0 -0.01 0 -0 0 -0.01 0 -0.01 0 -0 0 -0.01 0 -0 0 -0 0 -0.01 0 -0 0 -0 0 -0.01 0 -0 0 -0 0 -0.01 0 -0 0 -0 0 -0.01 0 -0 0 -0 0 -0.01 0 -0 0 -0 0 -0.01 0 -0 0 -0 0 -0.01 0 -0 0 -0 0 -0.01 0 -0 0 -0 0 -0.01 0 -0 0 -0 0 -0.01 0 -0 0 -0.01 0 -0.01 0 -0 0 -0.01 0 -0.01 0 -0 0 -0.01 0 -0.01 0 -0 0 -0.01 0 -0.01 0 -0.01 0 -0.01 0 -0 0 -0.01 0 -0.01 0 -0 0 -0.01 0 -0.01 0 -0 0 -0.01 0 -0.01 0 -0 0 -0.01 0 -0.01 0 -0 0 -0.01 0 -0 0 -0 0 -0.01 0 -0 0 -0 0 -0.01 0 -0 0 -0 0 -0.01 0 -0 0 -0 0.01 -0.01 0 -0 0 -0 0.01 -0.01 0 -0 4.17 -4.17c0.24,-0.24 0.62,-0.24 0.86,0 0.24,0.24 0.24,0.62 0,0.86l-3.14 3.14 6.05 0z"/>
 </g>
</svg>
