<?xml version="1.0" encoding="UTF-8"?>
<!DOCTYPE svg PUBLIC "-//W3C//DTD SVG 1.1//EN" "http://www.w3.org/Graphics/SVG/1.1/DTD/svg11.dtd">
<!-- Creator: CorelDRAW 2020 (64-Bit) -->
<svg xmlns="http://www.w3.org/2000/svg" xml:space="preserve" width="37.45mm" height="35.6116mm" version="1.1" style="shape-rendering:geometricPrecision; text-rendering:geometricPrecision; image-rendering:optimizeQuality; fill-rule:evenodd; clip-rule:evenodd"
viewBox="0 0 51.06 48.56"
 xmlns:xlink="http://www.w3.org/1999/xlink"
 xmlns:xodm="http://www.corel.com/coreldraw/odm/2003">
 <defs>
  <style type="text/css">
   <![CDATA[
    .fil0 {fill:#FC8038}
   ]]>
  </style>
 </defs>
 <g id="Слой_x0020_1">
  <metadata id="CorelCorpID_0Corel-Layer"/>
  <path class="fil0" d="M43.84 27.57l-7.9 0c-3.79,0 -6.99,2.9 -6.99,6.75l0 7.52c0,3.86 3.21,6.71 6.99,6.71l7.9 0c3.74,0 7.23,-2.83 7.23,-6.71l0 -7.52c0,-3.87 -3.47,-6.75 -7.23,-6.75zm3.54 14.27c0,1.88 -1.72,3.27 -3.54,3.27l-7.9 0c-1.85,0 -3.3,-1.42 -3.3,-3.27l0 -7.52c0,-1.85 1.45,-3.32 3.3,-3.32l7.9 0c1.82,0 3.54,1.44 3.54,3.32l0 7.52zm-32.49 -14.27l-7.9 0c-3.79,0 -6.99,2.9 -6.99,6.75l0 7.52c0,3.86 3.21,6.71 6.99,6.71l7.9 0c3.74,0 7.23,-2.83 7.23,-6.71l0 -7.52c0,-3.87 -3.47,-6.75 -7.23,-6.75zm3.54 14.27c0,1.88 -1.72,3.27 -3.54,3.27l-7.9 0c-1.85,0 -3.3,-1.42 -3.3,-3.27l0 -7.52c0,-1.85 1.45,-3.32 3.3,-3.32l7.9 0c1.82,0 3.54,1.44 3.54,3.32l0 7.52zm25.41 -41.85l-7.9 0c-3.79,0 -6.99,2.9 -6.99,6.75l0 7.52c0,3.86 3.21,6.71 6.99,6.71l7.9 0c3.74,0 7.23,-2.83 7.23,-6.71l0 -7.52c0,-3.87 -3.47,-6.75 -7.23,-6.75zm3.54 14.27c0,1.88 -1.72,3.27 -3.54,3.27l-7.9 0c-1.85,0 -3.3,-1.42 -3.3,-3.27l0 -7.52c0,-1.85 1.45,-3.32 3.3,-3.32l7.9 0c1.82,0 3.54,1.44 3.54,3.32l0 7.52zm-32.49 -14.27l-7.9 0c-3.79,0 -6.99,2.9 -6.99,6.75l0 7.52c0,3.86 3.21,6.71 6.99,6.71l7.9 0c3.74,0 7.23,-2.83 7.23,-6.71l0 -7.52c0,-3.87 -3.47,-6.75 -7.23,-6.75zm3.54 14.27c0,1.88 -1.72,3.27 -3.54,3.27l-7.9 0c-1.85,0 -3.3,-1.42 -3.3,-3.27l0 -7.52c0,-1.85 1.45,-3.32 3.3,-3.32l7.9 0c1.82,0 3.54,1.44 3.54,3.32l0 7.52z"/>
 </g>
</svg>
