<?xml version="1.0" encoding="UTF-8"?>
<!DOCTYPE svg PUBLIC "-//W3C//DTD SVG 1.1//EN" "http://www.w3.org/Graphics/SVG/1.1/DTD/svg11.dtd">
<!-- Creator: CorelDRAW 2020 (64-Bit) -->
<svg xmlns="http://www.w3.org/2000/svg" xml:space="preserve" width="39.807mm" height="35.6693mm" version="1.1" style="shape-rendering:geometricPrecision; text-rendering:geometricPrecision; image-rendering:optimizeQuality; fill-rule:evenodd; clip-rule:evenodd"
viewBox="0 0 64.91 58.17"
 xmlns:xlink="http://www.w3.org/1999/xlink"
 xmlns:xodm="http://www.corel.com/coreldraw/odm/2003">
 <defs>
  <style type="text/css">
   <![CDATA[
    .fil0 {fill:#2B2A29;fill-rule:nonzero}
   ]]>
  </style>
 </defs>
 <g id="Слой_x0020_1">
  <metadata id="CorelCorpID_0Corel-Layer"/>
  <path class="fil0" d="M47.58 0c-6.44,0 -12.13,3.53 -15.12,8.84 -2.99,-5.31 -8.68,-8.84 -15.12,-8.84 -9.56,0 -17.34,7.78 -17.34,17.34 0,7.65 5.31,16.82 15.8,27.25 7.62,7.58 15.12,12.96 15.43,13.19 0.37,0.26 0.8,0.39 1.23,0.39 0.43,0 0.86,-0.13 1.23,-0.39 0.32,-0.23 7.81,-5.6 15.44,-13.19 10.48,-10.43 15.8,-19.6 15.8,-27.25 0,-9.56 -7.78,-17.34 -17.34,-17.34zm-1.4 41.55c-5.61,5.59 -11.29,10.04 -13.72,11.87 -2.43,-1.83 -8.11,-6.28 -13.72,-11.87 -9.49,-9.45 -14.51,-17.83 -14.51,-24.22 0,-7.23 5.88,-13.11 13.11,-13.11 6.66,0 12.26,4.98 13.02,11.59 0.12,1.07 1.03,1.87 2.1,1.87 1.07,0 1.97,-0.8 2.1,-1.87 0.77,-6.6 6.36,-11.59 13.02,-11.59 7.23,0 13.11,5.88 13.11,13.11 0,6.39 -5.02,14.76 -14.51,24.22z"/>
 </g>
</svg>
