<?xml version="1.0" encoding="UTF-8"?>
<!DOCTYPE svg PUBLIC "-//W3C//DTD SVG 1.1//EN" "http://www.w3.org/Graphics/SVG/1.1/DTD/svg11.dtd">
<!-- Creator: CorelDRAW 2020 (64-Bit) -->
<svg xmlns="http://www.w3.org/2000/svg" xml:space="preserve" width="29.0927mm" height="35.6116mm" version="1.1" style="shape-rendering:geometricPrecision; text-rendering:geometricPrecision; image-rendering:optimizeQuality; fill-rule:evenodd; clip-rule:evenodd"
viewBox="0 0 39.88 48.81"
 xmlns:xlink="http://www.w3.org/1999/xlink"
 xmlns:xodm="http://www.corel.com/coreldraw/odm/2003">
 <defs>
  <style type="text/css">
   <![CDATA[
    .fil0 {fill:#2B2A29;fill-rule:nonzero}
   ]]>
  </style>
 </defs>
 <g id="Слой_x0020_1">
  <metadata id="CorelCorpID_0Corel-Layer"/>
  <path class="fil0" d="M15.43 27.77c-3.22,0 -6.13,1.3 -8.23,3.4 -2.1,2.1 -3.4,5.01 -3.4,8.23l0 1.5c0,1.14 0.46,2.17 1.2,2.91 0.74,0.74 1.77,1.2 2.91,1.2l24.05 0c1.14,0 2.17,-0.46 2.91,-1.2 0.74,-0.74 1.2,-1.77 1.2,-2.91l0 -1.5c0,-3.22 -1.3,-6.13 -3.4,-8.23 -2.1,-2.1 -5.01,-3.4 -8.23,-3.4l-9.02 0zm-10.92 0.71c2.79,-2.79 6.65,-4.51 10.92,-4.51l9.02 0c4.27,0 8.13,1.72 10.92,4.51 2.79,2.79 4.51,6.65 4.51,10.92l0 1.5c0,2.19 -0.88,4.17 -2.31,5.6 -1.43,1.43 -3.41,2.31 -5.6,2.31l-24.05 0c-2.19,0 -4.17,-0.88 -5.6,-2.31 -1.43,-1.43 -2.31,-3.41 -2.31,-5.6l0 -1.5c0,-4.27 1.72,-8.13 4.51,-10.92z"/>
  <path class="fil0" d="M19.94 3.8c-1.96,0 -3.74,0.8 -5.03,2.09 -1.29,1.29 -2.09,3.07 -2.09,5.03 0,1.96 0.8,3.74 2.09,5.03 1.29,1.29 3.07,2.09 5.03,2.09 1.96,0 3.74,-0.8 5.03,-2.09 1.29,-1.29 2.09,-3.07 2.09,-5.03 0,-1.96 -0.8,-3.74 -2.09,-5.03 -1.29,-1.29 -3.07,-2.09 -5.03,-2.09zm-7.72 -0.6c1.98,-1.98 4.71,-3.2 7.72,-3.2 3.01,0 5.74,1.22 7.72,3.2 1.98,1.98 3.2,4.71 3.2,7.72 0,3.01 -1.22,5.74 -3.2,7.72 -1.98,1.98 -4.71,3.2 -7.72,3.2 -3.01,0 -5.74,-1.22 -7.72,-3.2 -1.98,-1.98 -3.2,-4.71 -3.2,-7.72 0,-3.01 1.22,-5.74 3.2,-7.72z"/>
 </g>
</svg>
