<?xml version="1.0" encoding="UTF-8"?>
<!DOCTYPE svg PUBLIC "-//W3C//DTD SVG 1.1//EN" "http://www.w3.org/Graphics/SVG/1.1/DTD/svg11.dtd">
<!-- Creator: CorelDRAW 2020 (64-Bit) -->
<svg xmlns="http://www.w3.org/2000/svg" xml:space="preserve" width="35.8645mm" height="26.6698mm" version="1.1" style="shape-rendering:geometricPrecision; text-rendering:geometricPrecision; image-rendering:optimizeQuality; fill-rule:evenodd; clip-rule:evenodd"
viewBox="0 0 39.56 29.42"
 xmlns:xlink="http://www.w3.org/1999/xlink"
 xmlns:xodm="http://www.corel.com/coreldraw/odm/2003">
 <defs>
  <style type="text/css">
   <![CDATA[
    .fil0 {fill:black;fill-rule:nonzero}
   ]]>
  </style>
 </defs>
 <g id="Слой_x0020_1">
  <metadata id="CorelCorpID_0Corel-Layer"/>
  <g id="_2734432892432">
   <g>
    <g>
     <path class="fil0" d="M37.66 14.16c-0.58,-0.79 -1.27,-1.48 -2.06,-2.04 -0.37,-0.27 -0.76,-0.5 -1.16,-0.71 0.01,-0.19 0.01,-0.38 0.01,-0.57 0,-1.46 -0.28,-2.87 -0.82,-4.2 -0.52,-1.29 -1.27,-2.44 -2.23,-3.43 -0.95,-0.99 -2.07,-1.77 -3.31,-2.31 -1.28,-0.56 -2.65,-0.85 -4.05,-0.85 -1.76,0 -3.5,0.46 -5.03,1.34 -0.99,0.57 -1.89,1.31 -2.65,2.17 -1.03,-0.45 -2.13,-0.7 -3.26,-0.74 -0.09,-0 -0.18,-0 -0.27,-0 -1.21,-0 -2.39,0.25 -3.5,0.74 -1.07,0.47 -2.04,1.14 -2.87,1.99 -0.83,0.85 -1.49,1.85 -1.96,2.96 -0.49,1.16 -0.74,2.38 -0.75,3.64 -0,0.14 0,0.29 0.01,0.43 -0.96,0.71 -1.77,1.61 -2.4,2.65 -0.87,1.46 -1.34,3.14 -1.34,4.86 -0,1.25 0.23,2.46 0.7,3.61 0.45,1.1 1.09,2.09 1.91,2.94 0.83,0.86 1.79,1.54 2.87,2.02 1.12,0.49 2.3,0.75 3.52,0.75l21.31 0c1.25,0 2.46,-0.26 3.6,-0.76 1.1,-0.49 2.09,-1.18 2.94,-2.07 0.84,-0.87 1.49,-1.89 1.95,-3.02 0.48,-1.18 0.71,-2.42 0.71,-3.7 -0.01,-1.04 -0.18,-2.07 -0.51,-3.05 -0.32,-0.95 -0.78,-1.83 -1.37,-2.63zm-7.32 12.33l-21.31 0c-3.39,0 -6.21,-2.88 -6.2,-6.4 0.01,-2.45 1.35,-4.57 3.31,-5.63 0.39,-0.21 0.6,-0.65 0.53,-1.09 -0.07,-0.39 -0.1,-0.8 -0.1,-1.21 0.03,-3.56 2.87,-6.45 6.28,-6.45 0.06,0 0.12,0 0.19,0 1.21,0.04 2.33,0.43 3.28,1.08 0.17,0.12 0.37,0.18 0.56,0.18 0.32,0 0.63,-0.16 0.82,-0.46 1.36,-2.15 3.7,-3.58 6.37,-3.58 4.2,0 7.61,3.54 7.61,7.9 0,0.54 -0.05,1.07 -0.15,1.57 -0.1,0.52 0.2,1.04 0.69,1.19 2.61,0.8 4.52,3.3 4.54,6.26 0.03,3.65 -2.89,6.63 -6.4,6.63z"/>
     <path class="fil0" d="M30.34 29.42l-21.31 0c-1.22,0 -2.41,-0.25 -3.53,-0.75 -1.08,-0.48 -2.05,-1.16 -2.88,-2.02 -0.82,-0.85 -1.47,-1.85 -1.92,-2.95 -0.47,-1.15 -0.71,-2.37 -0.7,-3.62 0.01,-1.73 0.47,-3.41 1.35,-4.88 0.63,-1.04 1.43,-1.94 2.39,-2.65 -0,-0.14 -0.01,-0.28 -0.01,-0.42 0.01,-1.27 0.26,-2.49 0.75,-3.65 0.47,-1.11 1.13,-2.11 1.96,-2.97 0.83,-0.86 1.8,-1.53 2.88,-2 1.12,-0.49 2.3,-0.74 3.51,-0.74 0.09,0 0.18,0 0.27,0 1.12,0.03 2.22,0.28 3.25,0.73 0.77,-0.87 1.66,-1.59 2.64,-2.16 1.54,-0.88 3.28,-1.35 5.04,-1.35 1.41,0 2.77,0.29 4.06,0.85 1.24,0.55 2.36,1.33 3.32,2.32 0.96,0.99 1.71,2.15 2.24,3.44 0.55,1.34 0.82,2.76 0.82,4.22 0,0.18 -0,0.37 -0.01,0.55 0.39,0.2 0.78,0.44 1.14,0.7 0.79,0.57 1.48,1.26 2.07,2.05 0.59,0.8 1.05,1.69 1.37,2.64 0.33,0.98 0.5,2.01 0.51,3.06 0.01,1.28 -0.23,2.53 -0.71,3.71 -0.46,1.13 -1.12,2.15 -1.96,3.03 -0.85,0.89 -1.84,1.59 -2.95,2.08 -1.15,0.51 -2.37,0.77 -3.61,0.77zm-17.49 -26.58c-1.2,0 -2.38,0.25 -3.49,0.73 -1.07,0.47 -2.03,1.14 -2.86,1.99 -0.83,0.85 -1.49,1.84 -1.95,2.95 -0.48,1.15 -0.73,2.37 -0.74,3.63 -0,0.14 0,0.29 0.01,0.43l0 0.02 -0.01 0.01c-0.96,0.71 -1.77,1.6 -2.39,2.65 -0.87,1.45 -1.33,3.13 -1.34,4.84 -0,1.24 0.23,2.45 0.7,3.6 0.45,1.09 1.09,2.08 1.9,2.93 0.82,0.86 1.79,1.54 2.86,2.01 1.11,0.49 2.29,0.74 3.5,0.74l21.31 0c1.24,0 2.45,-0.26 3.59,-0.76 1.1,-0.49 2.08,-1.18 2.93,-2.06 0.83,-0.87 1.49,-1.88 1.94,-3.01 0.48,-1.17 0.71,-2.41 0.7,-3.69 -0.01,-1.04 -0.18,-2.06 -0.5,-3.04 -0.32,-0.94 -0.77,-1.83 -1.36,-2.62 -0.58,-0.79 -1.27,-1.47 -2.05,-2.04 -0.37,-0.26 -0.75,-0.5 -1.15,-0.71l-0.02 -0.01 0 -0.02c0.01,-0.19 0.01,-0.38 0.01,-0.57 0,-1.45 -0.27,-2.86 -0.82,-4.19 -0.52,-1.28 -1.27,-2.43 -2.22,-3.42 -0.95,-0.99 -2.06,-1.76 -3.3,-2.31 -1.28,-0.56 -2.64,-0.85 -4.04,-0.85 -1.75,0 -3.48,0.46 -5.01,1.34 -0.99,0.57 -1.88,1.29 -2.64,2.16l-0.02 0.02 -0.02 -0.01c-1.03,-0.45 -2.13,-0.7 -3.25,-0.74 -0.09,-0 -0.18,-0 -0.27,-0zm17.49 23.68l-21.31 0c-1.67,0 -3.24,-0.68 -4.43,-1.92 -1.17,-1.22 -1.81,-2.82 -1.8,-4.51 0.01,-2.39 1.28,-4.56 3.33,-5.66 0.38,-0.2 0.58,-0.63 0.51,-1.06 -0.07,-0.4 -0.1,-0.81 -0.1,-1.21 0.01,-1.73 0.68,-3.35 1.88,-4.58 1.2,-1.23 2.77,-1.9 4.43,-1.9l0 0c0.06,0 0.12,0 0.19,0 1.18,0.04 2.32,0.41 3.29,1.09 0.16,0.11 0.35,0.17 0.54,0.17 0.32,0 0.62,-0.16 0.79,-0.44 1.42,-2.25 3.81,-3.59 6.4,-3.59 4.21,0 7.64,3.56 7.64,7.93 0,0.53 -0.05,1.06 -0.15,1.58 -0.1,0.5 0.19,1.01 0.67,1.15 1.28,0.39 2.44,1.22 3.25,2.33 0.84,1.15 1.29,2.52 1.3,3.96 0.01,1.75 -0.65,3.41 -1.85,4.68 -1.23,1.28 -2.85,1.99 -4.58,1.99zm-17.49 -20.78c-1.64,0 -3.2,0.67 -4.38,1.88 -1.19,1.22 -1.85,2.83 -1.86,4.54 -0,0.4 0.03,0.81 0.1,1.2 0.08,0.46 -0.14,0.91 -0.54,1.13 -2.02,1.09 -3.28,3.24 -3.29,5.6 -0.01,1.67 0.63,3.26 1.79,4.46 1.18,1.22 2.73,1.9 4.38,1.9l21.31 0c1.71,0 3.32,-0.7 4.53,-1.97 1.2,-1.25 1.85,-2.89 1.83,-4.63 -0.01,-1.43 -0.46,-2.79 -1.29,-3.92 -0.81,-1.1 -1.95,-1.92 -3.22,-2.31 -0.5,-0.16 -0.82,-0.7 -0.71,-1.23 0.1,-0.51 0.15,-1.04 0.15,-1.57 0,-4.34 -3.4,-7.86 -7.58,-7.86 -2.56,0 -4.93,1.33 -6.34,3.56 -0.19,0.29 -0.5,0.47 -0.85,0.47 -0.21,0 -0.41,-0.06 -0.58,-0.18 -0.97,-0.67 -2.1,-1.04 -3.26,-1.08 -0.06,-0 -0.12,-0 -0.18,-0l-0 0z"/>
    </g>
    <g>
     <path class="fil0" d="M25.35 11.27c-0.55,-0.57 -1.43,-0.57 -1.98,0l-3.23 3.35 -3.23 -3.35c-0.55,-0.57 -1.43,-0.57 -1.98,0 -0.55,0.57 -0.55,1.49 0,2.05l3.23 3.35 -3.23 3.35c-0.55,0.57 -0.55,1.48 0,2.05 0.27,0.28 0.63,0.42 0.99,0.42 0.36,0 0.72,-0.14 0.99,-0.42l3.23 -3.35 3.23 3.35c0.27,0.28 0.63,0.42 0.99,0.42 0.36,0 0.72,-0.14 0.99,-0.42 0.55,-0.57 0.55,-1.49 0,-2.05l-3.23 -3.35 3.23 -3.35c0.55,-0.57 0.55,-1.48 0,-2.05z"/>
     <path class="fil0" d="M24.36 22.53c-0.38,0 -0.74,-0.15 -1.01,-0.43l-3.21 -3.33 -3.21 3.33c-0.27,0.28 -0.63,0.43 -1.01,0.43 -0.38,0 -0.74,-0.15 -1.01,-0.43 -0.56,-0.58 -0.56,-1.52 0,-2.1l3.21 -3.33 -3.21 -3.33c-0.56,-0.58 -0.56,-1.52 0,-2.1 0.27,-0.28 0.63,-0.43 1.01,-0.43 0.38,0 0.74,0.15 1.01,0.43l3.21 3.33 3.21 -3.33c0.27,-0.28 0.63,-0.43 1.01,-0.43 0.38,0 0.74,0.15 1.01,0.43 0.56,0.58 0.56,1.52 0,2.1l-3.21 3.33 3.21 3.33c0.27,0.28 0.42,0.65 0.42,1.05 0,0.4 -0.15,0.77 -0.42,1.05 -0.27,0.28 -0.63,0.43 -1.01,0.43zm-4.22 -3.86l3.25 3.37c0.26,0.27 0.6,0.41 0.97,0.41 0.36,0 0.71,-0.15 0.97,-0.41 0.26,-0.27 0.4,-0.62 0.4,-1 0,-0.38 -0.14,-0.73 -0.4,-1l-3.25 -3.37 3.25 -3.37c0.53,-0.55 0.53,-1.45 0,-2 -0.26,-0.27 -0.6,-0.41 -0.97,-0.41 -0.36,0 -0.71,0.15 -0.97,0.41l-3.25 3.37 -3.25 -3.37c-0.26,-0.27 -0.6,-0.41 -0.97,-0.41 -0.36,0 -0.71,0.15 -0.97,0.41 -0.53,0.55 -0.53,1.45 0,2l3.25 3.37 -3.25 3.37c-0.53,0.55 -0.53,1.45 0,2 0.26,0.27 0.6,0.41 0.97,0.41 0.36,0 0.71,-0.15 0.97,-0.41l3.25 -3.37z"/>
    </g>
   </g>
  </g>
 </g>
</svg>
