<?xml version="1.0" encoding="UTF-8"?>
<!DOCTYPE svg PUBLIC "-//W3C//DTD SVG 1.1//EN" "http://www.w3.org/Graphics/SVG/1.1/DTD/svg11.dtd">
<!-- Creator: CorelDRAW 2020 (64-Bit) -->
<svg xmlns="http://www.w3.org/2000/svg" xml:space="preserve" width="232.411mm" height="70.0676mm" version="1.1" style="shape-rendering:geometricPrecision; text-rendering:geometricPrecision; image-rendering:optimizeQuality; fill-rule:evenodd; clip-rule:evenodd"
viewBox="0 0 756.23 227.99"
 xmlns:xlink="http://www.w3.org/1999/xlink"
 xmlns:xodm="http://www.corel.com/coreldraw/odm/2003">
 <defs>
  <style type="text/css">
   <![CDATA[
    .fil0 {fill:#2B2A29;fill-rule:nonzero}
   ]]>
  </style>
 </defs>
 <g id="Слой_x0020_1">
  <metadata id="CorelCorpID_0Corel-Layer"/>
  <path class="fil0" d="M94.66 26.31c0,2.62 -0.09,4.8 -0.31,6.58 -0.22,1.78 -0.58,3.2 -1.07,4.27 -0.49,1.02 -1.02,1.82 -1.6,2.31 -0.62,0.53 -1.33,0.8 -2.09,0.8l-55.2 0 0 45.33 51.78 0c0.8,0 1.51,0.22 2.09,0.67 0.62,0.4 1.16,1.16 1.64,2.18 0.49,1.07 0.8,2.44 1.02,4.18 0.22,1.73 0.36,3.91 0.36,6.53 0,2.58 -0.13,4.76 -0.36,6.49 -0.22,1.73 -0.53,3.16 -1.02,4.31 -0.49,1.11 -1.02,1.91 -1.64,2.4 -0.58,0.49 -1.29,0.71 -2.09,0.71l-51.78 0 0 62.8c0,0.93 -0.27,1.78 -0.8,2.49 -0.49,0.67 -1.42,1.24 -2.8,1.73 -1.33,0.49 -3.11,0.84 -5.24,1.11 -2.18,0.27 -4.98,0.4 -8.36,0.4 -3.29,0 -6.04,-0.13 -8.27,-0.4 -2.22,-0.27 -4,-0.62 -5.29,-1.11 -1.29,-0.44 -2.22,-1.07 -2.8,-1.73 -0.58,-0.71 -0.84,-1.56 -0.84,-2.49l0 -152.79c0,-3.82 0.98,-6.58 2.93,-8.27 1.96,-1.69 4.36,-2.53 7.24,-2.53l79.42 0c0.76,0 1.47,0.22 2.09,0.71 0.58,0.49 1.11,1.24 1.6,2.36 0.49,1.07 0.84,2.53 1.07,4.36 0.22,1.82 0.31,4.04 0.31,6.62zm139.95 90.8c0,9.87 -1.29,18.89 -3.91,27.07 -2.62,8.13 -6.53,15.15 -11.87,21.07 -5.29,5.91 -11.91,10.44 -19.91,13.69 -8,3.2 -17.33,4.8 -28,4.8 -10.36,0 -19.33,-1.42 -26.98,-4.31 -7.64,-2.84 -14,-7.02 -19.02,-12.49 -5.02,-5.47 -8.76,-12.18 -11.2,-20.18 -2.44,-7.96 -3.64,-17.07 -3.64,-27.33 0,-9.87 1.33,-18.93 3.96,-27.11 2.67,-8.22 6.62,-15.24 11.95,-21.11 5.29,-5.82 11.91,-10.36 19.87,-13.6 7.91,-3.2 17.24,-4.8 27.91,-4.8 10.44,0 19.47,1.42 27.11,4.22 7.64,2.84 13.95,6.98 18.93,12.44 5.02,5.47 8.71,12.18 11.15,20.18 2.44,7.96 3.64,17.11 3.64,27.47zm-33.6 1.29c0,-5.73 -0.44,-11.02 -1.38,-15.82 -0.93,-4.84 -2.44,-9.02 -4.67,-12.58 -2.18,-3.56 -5.07,-6.36 -8.67,-8.36 -3.64,-2 -8.18,-2.98 -13.69,-2.98 -4.89,0 -9.15,0.89 -12.84,2.67 -3.64,1.78 -6.67,4.4 -9.02,7.82 -2.36,3.42 -4.13,7.56 -5.29,12.35 -1.2,4.84 -1.78,10.31 -1.78,16.49 0,5.73 0.49,11.02 1.42,15.82 0.98,4.84 2.53,9.02 4.67,12.58 2.13,3.56 5.02,6.31 8.71,8.27 3.64,1.96 8.18,2.93 13.6,2.93 4.98,0 9.29,-0.89 12.98,-2.67 3.64,-1.78 6.67,-4.36 9.02,-7.73 2.36,-3.42 4.09,-7.51 5.24,-12.31 1.11,-4.84 1.69,-10.31 1.69,-16.49zm176.97 -1.29c0,9.87 -1.29,18.89 -3.91,27.07 -2.62,8.13 -6.53,15.15 -11.87,21.07 -5.29,5.91 -11.91,10.44 -19.91,13.69 -8,3.2 -17.33,4.8 -28,4.8 -10.36,0 -19.33,-1.42 -26.98,-4.31 -7.64,-2.84 -14,-7.02 -19.02,-12.49 -5.02,-5.47 -8.76,-12.18 -11.2,-20.18 -2.44,-7.96 -3.64,-17.07 -3.64,-27.33 0,-9.87 1.33,-18.93 3.96,-27.11 2.67,-8.22 6.62,-15.24 11.95,-21.11 5.29,-5.82 11.91,-10.36 19.87,-13.6 7.91,-3.2 17.24,-4.8 27.91,-4.8 10.44,0 19.47,1.42 27.11,4.22 7.64,2.84 13.95,6.98 18.93,12.44 5.02,5.47 8.71,12.18 11.15,20.18 2.44,7.96 3.64,17.11 3.64,27.47zm-33.6 1.29c0,-5.73 -0.44,-11.02 -1.38,-15.82 -0.93,-4.84 -2.44,-9.02 -4.67,-12.58 -2.18,-3.56 -5.07,-6.36 -8.67,-8.36 -3.64,-2 -8.18,-2.98 -13.69,-2.98 -4.89,0 -9.15,0.89 -12.84,2.67 -3.64,1.78 -6.67,4.4 -9.02,7.82 -2.36,3.42 -4.13,7.56 -5.29,12.35 -1.2,4.84 -1.78,10.31 -1.78,16.49 0,5.73 0.49,11.02 1.42,15.82 0.98,4.84 2.53,9.02 4.67,12.58 2.13,3.56 5.02,6.31 8.71,8.27 3.64,1.96 8.18,2.93 13.6,2.93 4.98,0 9.29,-0.89 12.98,-2.67 3.64,-1.78 6.67,-4.36 9.02,-7.73 2.36,-3.42 4.09,-7.51 5.24,-12.31 1.11,-4.84 1.69,-10.31 1.69,-16.49zm169.77 58c0,0.93 -0.22,1.73 -0.67,2.4 -0.4,0.67 -1.16,1.2 -2.18,1.64 -1.07,0.4 -2.49,0.71 -4.27,0.89 -1.78,0.18 -3.96,0.27 -6.53,0.27 -2.8,0 -5.07,-0.09 -6.8,-0.27 -1.73,-0.18 -3.11,-0.49 -4.22,-0.89 -1.07,-0.44 -1.87,-1.02 -2.31,-1.64 -0.49,-0.67 -0.76,-1.47 -0.76,-2.44l0 -12.93c-5.96,6.44 -12.27,11.42 -18.8,14.98 -6.58,3.56 -13.82,5.33 -21.82,5.33 -8.84,0 -16.35,-1.73 -22.44,-5.16 -6.13,-3.42 -11.11,-8.04 -14.98,-13.87 -3.87,-5.78 -6.67,-12.58 -8.4,-20.35 -1.73,-7.78 -2.62,-15.95 -2.62,-24.53 0,-10.31 1.11,-19.6 3.33,-27.87 2.22,-8.22 5.42,-15.24 9.69,-21.07 4.27,-5.82 9.55,-10.27 15.91,-13.42 6.31,-3.11 13.6,-4.67 21.87,-4.67 6.49,0 12.4,1.33 17.69,3.96 5.33,2.67 10.58,6.53 15.78,11.64l0 -62.8c0,-0.89 0.22,-1.64 0.71,-2.36 0.49,-0.67 1.33,-1.29 2.62,-1.73 1.24,-0.49 2.93,-0.84 4.98,-1.11 2.09,-0.27 4.76,-0.4 7.96,-0.4 3.2,0 5.87,0.13 7.95,0.4 2.04,0.27 3.73,0.62 4.93,1.11 1.2,0.44 2.09,1.07 2.58,1.73 0.53,0.71 0.8,1.47 0.8,2.36l0 170.79zm-32.53 -77.64c-4.67,-5.91 -9.2,-10.4 -13.47,-13.55 -4.31,-3.11 -8.8,-4.67 -13.51,-4.67 -4.22,0 -7.91,1.07 -10.98,3.2 -3.11,2.13 -5.56,4.93 -7.42,8.49 -1.87,3.6 -3.29,7.56 -4.18,11.91 -0.93,4.4 -1.38,8.89 -1.38,13.47 0,4.89 0.4,9.6 1.16,14.18 0.8,4.62 2.09,8.71 3.87,12.31 1.78,3.6 4.13,6.49 7.11,8.67 2.93,2.18 6.67,3.24 11.2,3.24 2.22,0 4.44,-0.31 6.58,-0.98 2.13,-0.67 4.27,-1.69 6.49,-3.2 2.22,-1.47 4.49,-3.38 6.84,-5.78 2.36,-2.4 4.93,-5.29 7.69,-8.76l0 -38.53zm147.37 44.75c0,6.58 -1.24,12.4 -3.73,17.47 -2.44,5.02 -5.96,9.2 -10.49,12.62 -4.53,3.38 -9.87,5.91 -16.04,7.6 -6.18,1.69 -12.84,2.53 -20.04,2.53 -4.36,0 -8.53,-0.31 -12.49,-0.98 -3.96,-0.67 -7.47,-1.51 -10.62,-2.53 -3.11,-0.98 -5.73,-2 -7.82,-3.07 -2.09,-1.07 -3.6,-2.04 -4.53,-2.98 -0.98,-0.93 -1.73,-2.36 -2.22,-4.31 -0.53,-1.91 -0.8,-4.8 -0.8,-8.62 0,-2.49 0.09,-4.49 0.27,-6 0.18,-1.51 0.44,-2.76 0.76,-3.64 0.36,-0.89 0.8,-1.51 1.33,-1.82 0.49,-0.31 1.16,-0.44 1.96,-0.44 0.93,0 2.36,0.53 4.22,1.64 1.87,1.11 4.18,2.31 6.98,3.6 2.76,1.33 6,2.58 9.69,3.69 3.69,1.16 7.91,1.73 12.58,1.73 2.93,0 5.6,-0.31 7.87,-0.93 2.31,-0.58 4.31,-1.47 6,-2.62 1.69,-1.11 2.98,-2.53 3.87,-4.31 0.84,-1.73 1.29,-3.73 1.29,-6 0,-2.62 -0.8,-4.84 -2.4,-6.71 -1.64,-1.87 -3.78,-3.51 -6.4,-4.89 -2.67,-1.38 -5.69,-2.67 -9.02,-3.91 -3.33,-1.2 -6.8,-2.53 -10.31,-4.04 -3.51,-1.47 -6.98,-3.16 -10.31,-5.07 -3.33,-1.91 -6.36,-4.22 -9.02,-7.02 -2.62,-2.76 -4.76,-6.13 -6.4,-10 -1.6,-3.91 -2.4,-8.62 -2.4,-14.09 0,-5.56 1.11,-10.62 3.29,-15.29 2.18,-4.62 5.29,-8.62 9.38,-11.91 4.13,-3.29 9.11,-5.87 14.98,-7.69 5.91,-1.82 12.49,-2.71 19.82,-2.71 3.69,0 7.2,0.27 10.67,0.76 3.42,0.53 6.58,1.2 9.33,1.96 2.8,0.8 5.16,1.6 7.07,2.53 1.91,0.89 3.29,1.69 4.13,2.31 0.84,0.67 1.42,1.29 1.78,1.96 0.31,0.67 0.58,1.42 0.76,2.36 0.18,0.89 0.36,2.04 0.49,3.38 0.13,1.33 0.18,3.02 0.18,5.02 0,2.36 -0.04,4.27 -0.18,5.73 -0.13,1.47 -0.36,2.67 -0.67,3.51 -0.31,0.89 -0.71,1.47 -1.24,1.78 -0.53,0.31 -1.16,0.44 -1.82,0.44 -0.8,0 -2.04,-0.44 -3.69,-1.38 -1.64,-0.89 -3.73,-1.87 -6.22,-2.89 -2.49,-1.02 -5.38,-2 -8.62,-2.89 -3.29,-0.93 -7.02,-1.38 -11.2,-1.38 -2.98,0 -5.56,0.31 -7.73,0.89 -2.18,0.62 -3.96,1.51 -5.38,2.62 -1.38,1.11 -2.44,2.44 -3.11,3.96 -0.71,1.51 -1.07,3.16 -1.07,4.84 0,2.71 0.84,4.98 2.49,6.8 1.64,1.82 3.82,3.42 6.53,4.8 2.67,1.38 5.78,2.71 9.2,3.91 3.42,1.2 6.93,2.53 10.44,3.96 3.51,1.42 7.02,3.11 10.44,5.02 3.42,1.91 6.53,4.27 9.2,7.02 2.71,2.8 4.89,6.09 6.53,9.96 1.64,3.87 2.49,8.44 2.49,13.73zm87.64 37.29l-14.09 41.06c-0.8,2.18 -2.89,3.73 -6.36,4.71 -3.47,0.93 -8.53,1.42 -15.2,1.42 -3.47,0 -6.27,-0.13 -8.31,-0.44 -2.09,-0.31 -3.64,-0.8 -4.71,-1.51 -1.02,-0.71 -1.6,-1.56 -1.69,-2.58 -0.09,-1.07 0.18,-2.31 0.8,-3.78l15.47 -38.89c-1.11,-0.53 -2.13,-1.33 -3.02,-2.4 -0.93,-1.11 -1.6,-2.27 -2.04,-3.47l-39.86 -106.84c-1.11,-3.02 -1.69,-5.38 -1.69,-6.98 0,-1.6 0.53,-2.84 1.56,-3.78 1.02,-0.89 2.8,-1.51 5.24,-1.87 2.49,-0.36 5.73,-0.53 9.82,-0.53 3.69,0 6.62,0.04 8.8,0.18 2.18,0.13 3.87,0.49 5.07,0.98 1.2,0.53 2.13,1.33 2.71,2.44 0.62,1.07 1.2,2.62 1.82,4.62l27.33 77.77 0.4 0 24.8 -79.33c0.53,-2.27 1.2,-3.78 2.04,-4.53 0.8,-0.71 2.18,-1.24 4.09,-1.6 1.91,-0.36 5.29,-0.53 10.04,-0.53 3.78,0 6.89,0.18 9.33,0.53 2.49,0.36 4.31,0.98 5.51,1.96 1.16,0.93 1.73,2.22 1.73,3.82 0,1.6 -0.31,3.51 -1.02,5.69l-38.58 113.86z"/>
 </g>
</svg>
