<?xml version="1.0" encoding="UTF-8"?>
<!DOCTYPE svg PUBLIC "-//W3C//DTD SVG 1.1//EN" "http://www.w3.org/Graphics/SVG/1.1/DTD/svg11.dtd">
<!-- Creator: CorelDRAW 2020 (64-Bit) -->
<svg xmlns="http://www.w3.org/2000/svg" xml:space="preserve" width="25.59mm" height="15.7162mm" version="1.1" style="shape-rendering:geometricPrecision; text-rendering:geometricPrecision; image-rendering:optimizeQuality; fill-rule:evenodd; clip-rule:evenodd"
viewBox="0 0 8.99 5.52"
 xmlns:xlink="http://www.w3.org/1999/xlink"
 xmlns:xodm="http://www.corel.com/coreldraw/odm/2003">
 <defs>
  <style type="text/css">
   <![CDATA[
    .fil0 {fill:#2B2A29;fill-rule:nonzero}
   ]]>
  </style>
 </defs>
 <g id="Слой_x0020_1">
  <metadata id="CorelCorpID_0Corel-Layer"/>
  <path class="fil0" d="M0.5 0.99c-0.27,0 -0.5,-0.22 -0.5,-0.5 0,-0.27 0.22,-0.5 0.5,-0.5l8 0c0.27,0 0.5,0.22 0.5,0.5 0,0.27 -0.22,0.5 -0.5,0.5l-8 0zm0 4.53c-0.27,0 -0.5,-0.22 -0.5,-0.5 0,-0.27 0.22,-0.5 0.5,-0.5l8 0c0.27,0 0.5,0.22 0.5,0.5 0,0.27 -0.22,0.5 -0.5,0.5l-8 0zm0 -2.26c-0.27,0 -0.5,-0.22 -0.5,-0.5 0,-0.27 0.22,-0.5 0.5,-0.5l8 0c0.27,0 0.5,0.22 0.5,0.5 0,0.27 -0.22,0.5 -0.5,0.5l-8 0z"/>
 </g>
</svg>
