<?xml version="1.0" encoding="UTF-8"?>
<!DOCTYPE svg PUBLIC "-//W3C//DTD SVG 1.1//EN" "http://www.w3.org/Graphics/SVG/1.1/DTD/svg11.dtd">
<!-- Creator: CorelDRAW 2020 (64-Bit) -->
<svg xmlns="http://www.w3.org/2000/svg" xml:space="preserve" width="23.1078mm" height="23.1102mm" version="1.1" style="shape-rendering:geometricPrecision; text-rendering:geometricPrecision; image-rendering:optimizeQuality; fill-rule:evenodd; clip-rule:evenodd"
viewBox="0 0 10.66 10.66"
 xmlns:xlink="http://www.w3.org/1999/xlink"
 xmlns:xodm="http://www.corel.com/coreldraw/odm/2003">
 <defs>
  <style type="text/css">
   <![CDATA[
    .fil0 {fill:#2B2A29}
   ]]>
  </style>
 </defs>
 <g id="Слой_x0020_1">
  <metadata id="CorelCorpID_0Corel-Layer"/>
  <path class="fil0" d="M4.76 2.03c-0.28,0.03 -0.49,0.28 -0.46,0.57 0.03,0.28 0.28,0.49 0.57,0.46 0.5,-0.05 0.97,0.23 1.16,0.69 0.11,0.26 0.41,0.38 0.68,0.27 0.26,-0.11 0.38,-0.41 0.27,-0.68 -0.37,-0.88 -1.27,-1.41 -2.22,-1.31zm-3.29 4.6c-0.17,-0.33 -0.3,-0.68 -0.37,-1.05l-0 -0 0 -0c-0.07,-0.37 -0.09,-0.75 -0.05,-1.12 0.04,-0.37 0.13,-0.73 0.27,-1.08 0.14,-0.35 0.33,-0.67 0.56,-0.96 0.23,-0.29 0.5,-0.54 0.81,-0.75 0.62,-0.42 1.34,-0.64 2.06,-0.64 0.72,0 1.44,0.21 2.06,0.64 0.31,0.21 0.58,0.46 0.81,0.75 0.23,0.29 0.42,0.61 0.56,0.96 0.14,0.35 0.23,0.72 0.27,1.08 0.04,0.37 0.02,0.74 -0.05,1.12 -0,0.01 -0,0.01 -0,0.02 -0.07,0.36 -0.2,0.71 -0.36,1.03 -0.15,0.29 -0.34,0.56 -0.57,0.81 -0.01,0.01 -0.01,0.01 -0.02,0.02 -0.01,0.01 -0.03,0.03 -0.04,0.04 -0.01,0.01 -0.02,0.02 -0.03,0.03l-0 0c-0.35,0.35 -0.76,0.63 -1.2,0.82 -0.44,0.19 -0.93,0.29 -1.43,0.29 -0.5,0 -0.98,-0.1 -1.43,-0.29 -0.45,-0.19 -0.86,-0.47 -1.2,-0.82l-0 -0c-0.26,-0.27 -0.48,-0.57 -0.65,-0.9zm-0.91 0.48c0.22,0.42 0.5,0.8 0.83,1.14l0 0c0.44,0.45 0.97,0.81 1.54,1.05 0.58,0.24 1.2,0.37 1.83,0.37 0.63,0 1.25,-0.13 1.83,-0.37 0.44,-0.19 0.86,-0.44 1.22,-0.75l1.97 1.97c0.2,0.2 0.53,0.2 0.73,-0 0.2,-0.2 0.2,-0.53 -0,-0.73l-2 -1.99c0.16,-0.22 0.31,-0.45 0.44,-0.69 0.22,-0.41 0.37,-0.85 0.46,-1.31 0,-0.01 0,-0.01 0,-0.02 0.09,-0.46 0.11,-0.94 0.07,-1.41 -0.05,-0.47 -0.16,-0.94 -0.34,-1.37 -0.18,-0.44 -0.42,-0.85 -0.71,-1.21 -0.3,-0.37 -0.64,-0.69 -1.03,-0.96 -0.8,-0.55 -1.72,-0.82 -2.64,-0.82 -0.92,0 -1.85,0.27 -2.64,0.82 -0.39,0.27 -0.74,0.59 -1.03,0.96 -0.3,0.37 -0.54,0.77 -0.71,1.21 -0.18,0.44 -0.29,0.9 -0.34,1.37 -0.05,0.47 -0.02,0.95 0.07,1.41l0 -0c0.09,0.46 0.25,0.91 0.47,1.33z"/>
 </g>
</svg>
