<?xml version="1.0" encoding="UTF-8"?>
<!DOCTYPE svg PUBLIC "-//W3C//DTD SVG 1.1//EN" "http://www.w3.org/Graphics/SVG/1.1/DTD/svg11.dtd">
<!-- Creator: CorelDRAW 2020 (64-Bit) -->
<svg xmlns="http://www.w3.org/2000/svg" xml:space="preserve" width="31.3172mm" height="32.0552mm" version="1.1" style="shape-rendering:geometricPrecision; text-rendering:geometricPrecision; image-rendering:optimizeQuality; fill-rule:evenodd; clip-rule:evenodd"
viewBox="0 0 47.37 48.49"
 xmlns:xlink="http://www.w3.org/1999/xlink"
 xmlns:xodm="http://www.corel.com/coreldraw/odm/2003">
 <defs>
  <style type="text/css">
   <![CDATA[
    .fil0 {fill:black;fill-rule:nonzero}
   ]]>
  </style>
 </defs>
 <g id="Слой_x0020_1">
  <metadata id="CorelCorpID_0Corel-Layer"/>
  <path class="fil0" d="M21.51 48.49c-1.05,0 -2.02,-0.39 -2.76,-1.04 -0.72,-0.63 -1.24,-1.51 -1.41,-2.53 -0.02,-0.13 -0.08,-0.24 -0.16,-0.34 -0.07,-0.08 -0.16,-0.14 -0.27,-0.18 -0.04,-0.01 -0.08,-0.03 -0.12,-0.05 -0.36,-0.13 -0.72,-0.27 -1.09,-0.43 -0.35,-0.15 -0.73,-0.33 -1.14,-0.53l-0.03 -0.02 -0 0c-0.09,-0.05 -0.19,-0.06 -0.29,-0.06 -0.09,0.01 -0.18,0.04 -0.27,0.1l-0.02 0.01c-0.83,0.59 -1.81,0.84 -2.76,0.77 -0.97,-0.08 -1.91,-0.5 -2.64,-1.26l-3.09 -3.16c-0.74,-0.76 -1.15,-1.73 -1.23,-2.72 -0.08,-0.97 0.17,-1.98 0.76,-2.85l-0 -0c0.07,-0.11 0.12,-0.24 0.13,-0.39 0.01,-0.15 -0.01,-0.29 -0.07,-0.41 -0.02,-0.04 -0.03,-0.07 -0.05,-0.11 -0.17,-0.38 -0.3,-0.69 -0.39,-0.92 -0.11,-0.29 -0.23,-0.63 -0.36,-1.03l-0.01 -0.05 -0 0c-0.05,-0.15 -0.13,-0.29 -0.24,-0.39 -0.1,-0.1 -0.23,-0.16 -0.36,-0.19l-0.06 -0.01c-1.02,-0.19 -1.9,-0.73 -2.53,-1.49 -0.64,-0.77 -1.03,-1.76 -1.04,-2.85l0 -0.01 -0.01 0 0 -3.96c0,-0.07 0,-0.14 0.01,-0.21 0.04,-1.09 0.44,-2.09 1.1,-2.89 0.7,-0.85 1.67,-1.45 2.8,-1.65l-0 -0c0.2,-0.04 0.39,-0.13 0.53,-0.25 0.15,-0.13 0.27,-0.3 0.36,-0.51 0.02,-0.04 0.04,-0.09 0.06,-0.13 0.06,-0.14 0.11,-0.26 0.16,-0.36 0.01,-0.02 0.08,-0.17 0.21,-0.46l0.02 -0.05 -0 -0c0.11,-0.22 0.16,-0.46 0.14,-0.7 -0.01,-0.22 -0.08,-0.44 -0.2,-0.63 -0.66,-0.95 -0.94,-2.07 -0.85,-3.15 0.09,-1.09 0.54,-2.16 1.35,-2.99l2.27 -2.33c0.89,-0.92 2.05,-1.44 3.23,-1.54 1.18,-0.1 2.4,0.22 3.43,0.98l0.05 0.04c0.2,0.13 0.43,0.21 0.66,0.24 0.24,0.02 0.48,-0.01 0.71,-0.11 0.04,-0.02 0.07,-0.03 0.11,-0.04l-0 -0c0.25,-0.09 0.47,-0.25 0.64,-0.45 0.18,-0.21 0.3,-0.47 0.35,-0.75 0.01,-0.07 0.03,-0.14 0.05,-0.2 0.22,-1.2 0.84,-2.24 1.71,-3 0.91,-0.79 2.09,-1.27 3.36,-1.27l0 -0.01 2.74 0 0 0.01c1.3,-0 2.49,0.48 3.41,1.28 0.91,0.79 1.55,1.89 1.77,3.15l0.04 0.16c0,0.02 0.01,0.04 0.01,0.06l0 -0c0.05,0.26 0.16,0.5 0.32,0.7 0.16,0.19 0.36,0.34 0.58,0.43 0.03,0.01 0.06,0.02 0.09,0.04l0 -0.01c0.22,0.1 0.45,0.13 0.68,0.11 0.21,-0.02 0.42,-0.09 0.61,-0.21l0.16 -0.12c1.05,-0.78 2.29,-1.1 3.5,-1 1.21,0.1 2.38,0.63 3.29,1.56l2.09 2.14c0.85,0.87 1.32,1.99 1.41,3.14 0.09,1.14 -0.21,2.31 -0.91,3.3l-0.02 0.02c-0.12,0.21 -0.19,0.45 -0.21,0.7 -0.02,0.28 0.03,0.56 0.16,0.82 0.01,0.03 0.03,0.06 0.04,0.09l0 -0 0.13 0.32c0.02,0.04 0.03,0.07 0.04,0.11 0.1,0.21 0.24,0.4 0.41,0.54 0.19,0.16 0.41,0.26 0.65,0.31l0.06 0.01c1.15,0.22 2.16,0.84 2.88,1.7 0.73,0.88 1.17,2.02 1.17,3.24l0.01 0 0 3.55 -0.01 0c-0,1.14 -0.4,2.19 -1.07,3 -0.67,0.82 -1.62,1.4 -2.72,1.6l0 0c-0.18,0.04 -0.35,0.12 -0.49,0.25 -0.15,0.13 -0.26,0.31 -0.32,0.5l-0.02 0.05 0 0c-0.07,0.22 -0.16,0.45 -0.25,0.7 -0.12,0.31 -0.21,0.55 -0.28,0.7 -0.02,0.04 -0.04,0.09 -0.06,0.13 -0.04,0.14 -0.06,0.29 -0.04,0.44 0.02,0.18 0.07,0.35 0.17,0.5l0.03 0.05c0.6,0.89 0.85,1.93 0.77,2.94 -0.08,1.04 -0.52,2.06 -1.29,2.86l-2.9 2.97c-0.75,0.77 -1.72,1.2 -2.71,1.29 -0.99,0.08 -2.01,-0.18 -2.87,-0.82l-0.01 -0.01c-0.09,-0.05 -0.19,-0.08 -0.29,-0.09 -0.12,-0.01 -0.23,0.02 -0.34,0.08 -0.03,0.02 -0.06,0.03 -0.09,0.05 -0.31,0.16 -0.63,0.31 -0.97,0.46 -0.32,0.14 -0.67,0.28 -1.04,0.42l-0.03 0.01 0 0c-0.12,0.04 -0.22,0.11 -0.3,0.21 -0.08,0.09 -0.14,0.2 -0.17,0.32l0 0c-0.16,1.05 -0.68,1.97 -1.43,2.63 -0.75,0.67 -1.74,1.07 -2.81,1.08l-0.01 0 0 0.01 -4.32 0zm11.35 -24.25c0,2.57 -1.02,4.9 -2.67,6.59 -1.66,1.71 -3.96,2.76 -6.5,2.76 -2.54,0 -4.84,-1.06 -6.5,-2.76 -1.65,-1.69 -2.67,-4.02 -2.67,-6.59 0,-2.57 1.02,-4.9 2.67,-6.59 1.66,-1.71 3.96,-2.76 6.5,-2.76 2.54,0 4.84,1.06 6.5,2.76 1.65,1.69 2.67,4.02 2.67,6.59zm-5.41 3.93c0.98,-1 1.58,-2.39 1.58,-3.93 0,-1.54 -0.6,-2.93 -1.58,-3.93 -0.96,-0.99 -2.29,-1.6 -3.76,-1.6 -1.47,0 -2.8,0.61 -3.76,1.6 -0.98,1 -1.58,2.39 -1.58,3.93 0,1.54 0.6,2.93 1.58,3.93 0.96,0.99 2.29,1.6 3.76,1.6 1.47,0 2.8,-0.61 3.76,-1.6zm-6.19 16.39c0.07,0.06 0.16,0.1 0.25,0.1l4.32 0 0 0.01c0.11,-0 0.21,-0.05 0.29,-0.12 0.09,-0.08 0.16,-0.2 0.18,-0.34l0.01 0 0.01 -0.05c0.15,-0.81 0.5,-1.55 1,-2.15 0.51,-0.61 1.18,-1.09 1.96,-1.36l0 0c0.26,-0.1 0.53,-0.21 0.82,-0.33 0.25,-0.11 0.51,-0.23 0.77,-0.37l0.01 -0c0.74,-0.4 1.57,-0.57 2.38,-0.53 0.76,0.05 1.51,0.29 2.17,0.72 0.05,0.03 0.11,0.07 0.16,0.11 0.09,0.07 0.2,0.09 0.3,0.09 0.11,-0.01 0.21,-0.05 0.29,-0.13l2.9 -2.97c0.13,-0.13 0.2,-0.31 0.22,-0.49 0.01,-0.18 -0.02,-0.36 -0.12,-0.5 -0.02,-0.02 -0.03,-0.04 -0.04,-0.06 -0.47,-0.7 -0.74,-1.5 -0.81,-2.31 -0.06,-0.72 0.04,-1.47 0.32,-2.18 0.02,-0.06 0.04,-0.12 0.07,-0.18 0.11,-0.27 0.19,-0.46 0.23,-0.57 0.07,-0.18 0.14,-0.37 0.21,-0.58l0 0c0.27,-0.85 0.75,-1.58 1.38,-2.15 0.65,-0.59 1.45,-1 2.33,-1.18l0 0 0.04 -0.01c0.18,-0.03 0.34,-0.13 0.46,-0.27 0.13,-0.16 0.21,-0.35 0.21,-0.57l-0.01 0 0 -3.55 0.01 0c-0,-0.31 -0.11,-0.59 -0.29,-0.8 -0.16,-0.19 -0.38,-0.33 -0.63,-0.38 -0.03,-0 -0.07,-0.01 -0.1,-0.02 -0.88,-0.17 -1.7,-0.57 -2.37,-1.14 -0.63,-0.53 -1.14,-1.2 -1.48,-1.98 -0.02,-0.04 -0.04,-0.08 -0.05,-0.12l-0.13 -0.32 0 -0c-0.38,-0.84 -0.55,-1.74 -0.49,-2.63 0.06,-0.87 0.32,-1.73 0.79,-2.49 0.04,-0.07 0.08,-0.13 0.12,-0.19 0.17,-0.24 0.24,-0.53 0.22,-0.82 -0.02,-0.28 -0.13,-0.55 -0.33,-0.76l-2.09 -2.14c-0.24,-0.24 -0.55,-0.38 -0.87,-0.41 -0.32,-0.03 -0.64,0.06 -0.91,0.26l-0.16 0.11 -0 -0 -0.04 0.03c-0.74,0.52 -1.59,0.83 -2.46,0.92 -0.87,0.09 -1.77,-0.05 -2.59,-0.41l0 -0c-0.82,-0.33 -1.53,-0.86 -2.08,-1.53 -0.56,-0.69 -0.96,-1.51 -1.13,-2.42l0 -0 -0.02 -0.09c-0.02,-0.06 -0.03,-0.12 -0.04,-0.18 -0.06,-0.37 -0.24,-0.69 -0.5,-0.91 -0.25,-0.22 -0.57,-0.35 -0.92,-0.35l0 0.01 -2.74 0 0 -0.01c-0.32,0 -0.62,0.12 -0.85,0.32 -0.25,0.21 -0.42,0.52 -0.47,0.87l-0 -0c-0.01,0.08 -0.03,0.15 -0.05,0.23l-0 0.01c-0.19,0.91 -0.59,1.74 -1.16,2.42 -0.59,0.71 -1.36,1.26 -2.25,1.59l-0 -0c-0.81,0.33 -1.67,0.45 -2.51,0.37 -0.86,-0.08 -1.69,-0.38 -2.43,-0.88 -0.02,-0.02 -0.05,-0.03 -0.07,-0.05l-0.03 -0.02c-0.02,-0.01 -0.04,-0.03 -0.07,-0.05 -0.26,-0.19 -0.56,-0.27 -0.86,-0.24 -0.3,0.03 -0.59,0.15 -0.81,0.38l-2.27 2.33c-0.16,0.17 -0.26,0.39 -0.28,0.63 -0.02,0.24 0.04,0.47 0.18,0.67l-0 0 0.03 0.04c0.51,0.77 0.8,1.66 0.85,2.56 0.05,0.89 -0.13,1.8 -0.55,2.62l-0 -0 -0.15 0.33c-0.05,0.12 -0.1,0.22 -0.13,0.3l-0.02 0.05c-0.31,0.79 -0.82,1.48 -1.46,2.02 -0.65,0.54 -1.42,0.92 -2.25,1.09l-0 -0 -0.05 0.01c-0.22,0.04 -0.4,0.15 -0.54,0.32 -0.13,0.15 -0.21,0.35 -0.23,0.56 0,0.04 0,0.07 0,0.11l0 3.96 -0.01 0c0,0.15 0.06,0.29 0.15,0.4 0.08,0.09 0.18,0.16 0.29,0.18 0.03,0 0.06,0.01 0.09,0.01 0.85,0.17 1.62,0.56 2.23,1.13 0.61,0.56 1.07,1.29 1.31,2.12 0.07,0.22 0.17,0.48 0.28,0.79 0.12,0.32 0.22,0.57 0.3,0.75l0.01 0.03c0.35,0.74 0.49,1.54 0.43,2.31 -0.06,0.78 -0.32,1.55 -0.77,2.23l-0 -0 -0.02 0.03c-0.08,0.11 -0.11,0.25 -0.1,0.39 0.01,0.13 0.06,0.26 0.16,0.36l3.09 3.16c0.06,0.06 0.14,0.1 0.22,0.1 0.07,0.01 0.15,-0.01 0.22,-0.06l0.05 -0.03c0.67,-0.47 1.44,-0.73 2.23,-0.78 0.77,-0.05 1.57,0.11 2.29,0.49 0.27,0.13 0.57,0.27 0.9,0.41 0.28,0.12 0.57,0.23 0.87,0.34l0.04 0.01c0.77,0.26 1.45,0.72 1.97,1.33 0.51,0.59 0.87,1.33 1.01,2.13l0.01 0.04c0.02,0.11 0.08,0.21 0.16,0.29z"/>
 </g>
</svg>
