<?xml version="1.0" encoding="UTF-8"?>
<!DOCTYPE svg PUBLIC "-//W3C//DTD SVG 1.1//EN" "http://www.w3.org/Graphics/SVG/1.1/DTD/svg11.dtd">
<!-- Creator: CorelDRAW 2020 (64-Bit) -->
<svg xmlns="http://www.w3.org/2000/svg" xml:space="preserve" width="15.0165mm" height="16.4708mm" version="1.1" style="shape-rendering:geometricPrecision; text-rendering:geometricPrecision; image-rendering:optimizeQuality; fill-rule:evenodd; clip-rule:evenodd"
viewBox="0 0 10.89 11.94"
 xmlns:xlink="http://www.w3.org/1999/xlink"
 xmlns:xodm="http://www.corel.com/coreldraw/odm/2003">
 <defs>
  <style type="text/css">
   <![CDATA[
    .fil0 {fill:#FFFEFF;fill-rule:nonzero}
   ]]>
  </style>
 </defs>
 <g id="Слой_x0020_1">
  <metadata id="CorelCorpID_0Corel-Layer"/>
  <path class="fil0" d="M0.22 1.29c-0.3,-0.3 -0.3,-0.78 0,-1.07 0.3,-0.3 0.78,-0.3 1.07,0l4.15 4.15 4.15 -4.15c0.3,-0.3 0.78,-0.3 1.07,0 0.3,0.3 0.3,0.78 0,1.07l-3.46 3.6c-0.28,0.3 -0.44,0.64 -0.47,1.04l0 0 0 0.01 0 0.01 0 0.01 0 0.01 0 0.01 0 0.01 -0 0.01 0 0c0.03,0.39 0.19,0.74 0.47,1.04l3.46 3.6c0.3,0.3 0.3,0.78 0,1.07 -0.3,0.3 -0.78,0.3 -1.07,0l-4.15 -4.15 -4.15 4.15c-0.3,0.3 -0.78,0.3 -1.07,0 -0.3,-0.3 -0.3,-0.78 0,-1.07l3.46 -3.6c0.28,-0.3 0.44,-0.64 0.47,-1.04l0 -0 -0 -0.01 0 -0.01 0 -0.01 0 -0.01 0 -0.01 0 -0.01 0 -0.01 0 -0c-0.03,-0.39 -0.19,-0.74 -0.47,-1.04l-3.46 -3.6z"/>
 </g>
</svg>
