<?xml version="1.0" encoding="UTF-8"?>
<!DOCTYPE svg PUBLIC "-//W3C//DTD SVG 1.1//EN" "http://www.w3.org/Graphics/SVG/1.1/DTD/svg11.dtd">
<!-- Creator: CorelDRAW 2020 (64-Bit) -->
<svg xmlns="http://www.w3.org/2000/svg" xml:space="preserve" width="86.6578mm" height="204.49mm" version="1.1" style="shape-rendering:geometricPrecision; text-rendering:geometricPrecision; image-rendering:optimizeQuality; fill-rule:evenodd; clip-rule:evenodd"
viewBox="0 0 125.2 295.44"
 xmlns:xlink="http://www.w3.org/1999/xlink"
 xmlns:xodm="http://www.corel.com/coreldraw/odm/2003">
 <defs>
  <style type="text/css">
   <![CDATA[
    .str1 {stroke:#2B2A29;stroke-width:4.08;stroke-miterlimit:2.61313}
    .str0 {stroke:black;stroke-width:4.08;stroke-miterlimit:2.61313}
    .str2 {stroke:#2B2A29;stroke-width:4.08;stroke-linecap:round;stroke-miterlimit:2.61313}
    .fil3 {fill:none}
    .fil2 {fill:#70AD5D}
    .fil0 {fill:#FF9D42}
    .fil1 {fill:#2B2A29;fill-rule:nonzero}
   ]]>
  </style>
 </defs>
 <g id="Слой_x0020_1">
  <metadata id="CorelCorpID_0Corel-Layer"/>
  <path class="fil0 str0" d="M86.49 282.35c0,0 8.44,12.81 17.76,10.48 9.32,-2.33 12.81,-22.71 13.39,-42.5 0.58,-19.79 5.24,-128.67 5.24,-128.67 0,0 -0.58,-42.79 -38.13,-40.75 -37.55,2.04 -63.17,14.56 -63.17,14.56 0,0 -24.75,15.43 -16.3,39.01 8,22.33 38.76,68.42 57.65,104.36 8.1,15.41 14.39,28.35 23.57,43.52z"/>
  <path class="fil1" d="M88.48 281.15c0.76,1.12 7.91,11.25 15.2,9.42 3.29,-0.82 5.79,-4.95 7.65,-10.85 2.5,-7.93 3.67,-18.77 3.98,-29.46 0.58,-19.76 5.16,-126.7 5.24,-128.65 -0.05,-2.03 -1.44,-40.25 -35.69,-38.39 -35.65,1.93 -60.27,13.37 -62.17,14.28 -1.77,1.15 -22.72,15.25 -15.23,36.18 4.71,13.14 17.55,34.86 31.13,57.82 9.2,15.56 18.74,31.69 26.39,46.24 1.88,3.57 3.7,7.09 5.48,10.52 5.71,11.04 11.01,21.29 18.03,32.88zm16.33 13.94c-10.92,2.73 -20.21,-11.4 -20.24,-11.44l-0.07 -0.1c-7.03,-11.62 -12.4,-21.98 -18.17,-33.15 -1.75,-3.37 -3.53,-6.83 -5.46,-10.49 -7.56,-14.39 -17.09,-30.5 -26.28,-46.04 -13.7,-23.17 -26.67,-45.09 -31.51,-58.62 -9.07,-25.34 17.18,-41.71 17.26,-41.75l0.25 -0.14c0.08,-0.04 26.01,-12.71 64.04,-14.77 39.96,-2.17 40.57,42.9 40.57,43.03l0 0.14c-0.01,0.31 -4.66,108.97 -5.24,128.64 -0.32,11.08 -1.56,22.37 -4.19,30.71 -2.34,7.42 -5.87,12.71 -10.96,13.98z"/>
  <path class="fil2 str1" d="M32.35 43.94c-0.97,-2.37 -2.88,-4.71 -5.29,-6.66 -8.11,-6.57 -21.89,-8.78 -24.69,6.81 -3.64,20.23 24.45,40.75 24.45,40.75l5.37 6.37c3.52,-1.24 7.85,-2.63 12.88,-3.98l-3.4 -14.17c-2.98,-10.22 -6.94,-23.28 -9.33,-29.13z"/>
  <path class="fil2 str1" d="M30.31 7.27c-12.37,11.64 -3.25,30.01 -3.25,30.01 2.41,1.95 4.32,4.29 5.29,6.66 2.39,5.85 6.35,18.9 9.33,29.13 2.29,7.83 4,14.01 4,14.01 2.92,-0.77 6.07,-1.53 9.43,-2.24 -0.16,-2.04 -0.29,-5.29 -0.34,-10.47 -0.15,-15.14 5.53,-21.54 6.7,-27.51 0.6,-3.09 1.87,-10.38 2.52,-17.61 0.61,-6.75 0.7,-13.44 -0.78,-16.6 -3.06,-6.55 -20.52,-17.03 -32.89,-5.39z"/>
  <path class="fil2 str1" d="M63.98 29.25c-0.66,7.23 -1.92,14.52 -2.52,17.61 -1.16,5.97 -6.84,12.37 -6.7,27.51 0.05,5.18 0.18,8.43 0.34,10.47 8.19,-1.73 17.62,-3.17 28,-3.83 4.43,-6.75 11.43,-18.65 14.31,-30.37 4.37,-17.76 -5.82,-31.88 -17.18,-30.13 -7.19,1.11 -12.97,5.59 -16.25,8.74z"/>
  <line class="fil3 str2" x1="13.24" y1="151.83" x2="44.58" y2= "152.23" />
  <path class="fil3 str2" d="M119.51 104.45c0,0 -10.89,10.09 -21.07,13.14"/>
  <path class="fil3 str2" d="M53.8 222.2c0,0 12.32,-9.99 47.25,-9.27"/>
  <path class="fil3 str2" d="M61.98 237.05c0,0 14.33,-12.33 42.42,-15.53"/>
 </g>
</svg>
