<?xml version="1.0" encoding="UTF-8"?>
<!DOCTYPE svg PUBLIC "-//W3C//DTD SVG 1.1//EN" "http://www.w3.org/Graphics/SVG/1.1/DTD/svg11.dtd">
<!-- Creator: CorelDRAW 2020 (64-Bit) -->
<svg xmlns="http://www.w3.org/2000/svg" xml:space="preserve" width="91.1512mm" height="81.2564mm" version="1.1" style="shape-rendering:geometricPrecision; text-rendering:geometricPrecision; image-rendering:optimizeQuality; fill-rule:evenodd; clip-rule:evenodd"
viewBox="0 0 143.35 127.79"
 xmlns:xlink="http://www.w3.org/1999/xlink"
 xmlns:xodm="http://www.corel.com/coreldraw/odm/2003">
 <defs>
  <style type="text/css">
   <![CDATA[
    .str0 {stroke:#2B2A29;stroke-width:4.44;stroke-miterlimit:2.61313}
    .fil0 {fill:#F4D5DB}
    .fil1 {fill:#FF9554}
   ]]>
  </style>
 </defs>
 <g id="Слой_x0020_1">
  <metadata id="CorelCorpID_0Corel-Layer"/>
  <path class="fil0 str0" d="M47.5 59.37l-18.38 25.35c0,0 -13.94,15.37 -4.28,29.15 9.66,13.78 39.61,11.57 39.61,11.57 0,0 14.73,-0.64 16.64,-16.79 1.9,-16.16 -1.9,-39.93 -1.9,-39.93l-31.69 -9.35z"/>
  <path class="fil1 str0" d="M2.66 42.1c-4.44,-22.5 25.35,-41.67 46.11,-39.77 20.76,1.9 14.42,3.49 33.91,4.44 19.49,0.95 42.15,12.36 54.19,35.49 12.04,23.13 -3.17,52.28 -22.97,50.86 -13.84,-1 -27.92,-8.73 -35.14,-13.29 -11.3,-7.15 -14.38,-15.08 -30.1,-16.79 -16.4,-1.78 -41.84,0.06 -45.98,-20.93z"/>
 </g>
</svg>
