<?xml version="1.0" encoding="UTF-8"?>
<!DOCTYPE svg PUBLIC "-//W3C//DTD SVG 1.1//EN" "http://www.w3.org/Graphics/SVG/1.1/DTD/svg11.dtd">
<!-- Creator: CorelDRAW 2020 (64-Bit) -->
<svg xmlns="http://www.w3.org/2000/svg" xml:space="preserve" width="267.726mm" height="236.319mm" version="1.1" style="shape-rendering:geometricPrecision; text-rendering:geometricPrecision; image-rendering:optimizeQuality; fill-rule:evenodd; clip-rule:evenodd"
viewBox="0 0 1186.07 1046.93"
 xmlns:xlink="http://www.w3.org/1999/xlink"
 xmlns:xodm="http://www.corel.com/coreldraw/odm/2003">
 <defs>
  <style type="text/css">
   <![CDATA[
    .str1 {stroke:#2B2A29;stroke-width:12.5;stroke-miterlimit:2.61313}
    .str0 {stroke:black;stroke-width:12.5;stroke-miterlimit:2.61313}
    .str2 {stroke:#2B2A29;stroke-width:12.5;stroke-linecap:round;stroke-miterlimit:2.61313}
    .str3 {stroke:#2B2A29;stroke-width:12.5;stroke-linecap:round;stroke-linejoin:round;stroke-miterlimit:2.61313}
    .fil3 {fill:none}
    .fil2 {fill:#70AD5D}
    .fil5 {fill:#F4D5DB}
    .fil4 {fill:#FE8D51}
    .fil6 {fill:#FF9554}
    .fil0 {fill:#FF9D42}
    .fil1 {fill:#2B2A29;fill-rule:nonzero}
   ]]>
  </style>
 </defs>
 <g id="Слой_x0020_1">
  <metadata id="CorelCorpID_0Corel-Layer"/>
  <path class="fil0 str0" d="M365.37 996.66c0,0 25.88,39.28 54.45,32.14 28.57,-7.14 39.28,-69.63 41.06,-130.33 1.79,-60.7 16.07,-394.53 16.07,-394.53 0,0 -1.79,-131.22 -116.93,-124.97 -115.15,6.25 -193.7,44.63 -193.7,44.63 0,0 -75.88,47.31 -49.99,119.61 24.52,68.46 118.86,209.79 176.78,320 24.84,47.27 44.12,86.93 72.26,133.44z"/>
  <path class="fil1" d="M371.48 992.98c2.34,3.44 24.25,34.49 46.62,28.9 10.08,-2.52 17.76,-15.18 23.46,-33.28 7.66,-24.32 11.26,-57.56 12.22,-90.32 1.78,-60.6 15.81,-388.5 16.06,-394.48 -0.15,-6.22 -4.41,-123.41 -109.45,-117.71 -109.31,5.93 -184.8,41 -190.64,43.78 -5.44,3.52 -69.66,46.77 -46.69,110.95 14.43,40.3 53.81,106.89 95.44,177.29 28.21,47.71 57.47,97.17 80.91,141.79 5.76,10.96 11.34,21.74 16.79,32.27 17.52,33.86 33.78,65.28 55.27,100.81zm50.07 42.73c-33.48,8.37 -61.98,-34.95 -62.06,-35.07l-0.22 -0.3c-21.57,-35.64 -38.01,-67.41 -55.73,-101.65 -5.36,-10.35 -10.84,-20.94 -16.73,-32.16 -23.19,-44.14 -52.41,-93.53 -80.58,-141.17 -42.02,-71.05 -81.76,-138.26 -96.62,-179.75 -27.82,-77.69 52.69,-127.89 52.92,-128.03l0.75 -0.42c0.23,-0.11 79.77,-38.97 196.37,-45.3 122.53,-6.65 124.4,131.55 124.41,131.94l0 0.42c-0.04,0.96 -14.29,334.14 -16.07,394.45 -1,33.97 -4.77,68.59 -12.83,94.18 -7.17,22.76 -17.99,38.97 -33.61,42.87z"/>
  <path class="fil2 str1" d="M199.34 265.61c-2.97,-7.27 -8.82,-14.44 -16.22,-20.43 -24.86,-20.14 -67.12,-26.94 -75.72,20.87 -11.16,62.04 74.98,124.97 74.98,124.97l16.47 19.54c10.8,-3.8 24.08,-8.05 39.51,-12.19l-10.42 -43.44c-9.15,-31.35 -21.27,-71.37 -28.6,-89.32z"/>
  <path class="fil2 str1" d="M193.1 153.15c-37.94,35.7 -9.98,92.04 -9.98,92.04 7.4,5.99 13.25,13.16 16.22,20.43 7.33,17.94 19.46,57.96 28.6,89.32 7.01,24.02 12.26,42.95 12.26,42.95 8.96,-2.37 18.62,-4.7 28.92,-6.88 -0.48,-6.25 -0.89,-16.23 -1.04,-32.1 -0.45,-46.42 16.96,-66.05 20.53,-84.35 1.85,-9.47 5.72,-31.82 7.74,-53.99 1.88,-20.69 2.14,-41.2 -2.38,-50.9 -9.38,-20.08 -62.93,-52.22 -100.87,-16.51z"/>
  <path class="fil2 str1" d="M296.35 220.56c-2.01,22.16 -5.89,44.52 -7.74,53.99 -3.57,18.3 -20.98,37.93 -20.53,84.35 0.15,15.87 0.57,25.85 1.04,32.1 25.12,-5.31 54.03,-9.73 85.85,-11.73 13.58,-20.68 35.04,-57.19 43.88,-93.12 13.39,-54.45 -17.85,-97.74 -52.67,-92.39 -22.04,3.39 -39.78,17.15 -49.84,26.8z"/>
  <line class="fil3 str2" x1="140.77" y1="596.43" x2="236.85" y2= "597.67" />
  <path class="fil3 str2" d="M466.6 451.15c0,0 -33.38,30.93 -64.62,40.3"/>
  <path class="fil3 str2" d="M265.13 812.19c0,0 37.78,-30.64 144.89,-28.41"/>
  <path class="fil3 str2" d="M290.21 857.73c0,0 43.93,-37.8 130.07,-47.62"/>
  <path class="fil2 str1" d="M50.92 851.96l27.67 25c0,0 24.99,25.89 37.49,-31.24 9.18,-41.96 3.42,-84.89 -0.27,-104.72 -4.78,-25.62 -25.76,-63.81 -55.96,-56.84 -23.93,5.52 -45.31,39.89 -51.82,72.47 -8.78,43.86 16.23,64.08 42.9,95.34z"/>
  <path class="fil3 str3" d="M53.59 744.85c0,0 -2.68,39.27 8.93,66.94 11.61,27.67 16.07,65.16 16.07,65.16"/>
  <path class="fil2 str1" d="M978.35 708.25c0,0 30.39,-49.86 53.77,-89.66 12.7,-21.64 25.64,-49.39 42.96,-67.08 55.37,-56.62 135,-19.78 92.98,61.45 -14.29,27.63 -33.43,48.34 -59.55,65.08 -41.08,26.33 -99.18,45.2 -130.15,30.22z"/>
  <path class="fil3 str3" d="M1125.63 559.19c0,0 -34.16,69.12 -80.34,91.94 -46.17,22.82 -66.94,57.13 -66.94,57.13"/>
  <polygon class="fil2 str3" points="861.43,134.31 881.06,213.75 965.87,259.27 1011.39,167.34 949.8,191.44 936.41,140.56 906.06,186.97 "/>
  <path class="fil4 str3" d="M602.57 332.47c0,0 -9.82,-34.82 -5.36,-55.35 4.47,-20.53 17.85,-83.01 125.86,-101.76 108.01,-18.74 215.12,40.17 264.21,74.98 49.09,34.81 83.02,156.2 21.42,228.51 -61.59,72.3 -91.05,97.29 -162.46,99.08 -71.41,1.79 -118.72,-0.89 -174.06,-30.35 -55.34,-29.46 -66.94,-84.8 -68.73,-115.15 -1.79,-30.35 -0.89,-99.97 -0.89,-99.97z"/>
  <line class="fil3 str3" x1="728.43" y1="261.06" x2="602.46" y2= "344.08" />
  <path class="fil3 str3" d="M899.81 400.31c0,0 66.81,-15.47 104.44,-14.28"/>
  <path class="fil5 str1" d="M681.57 854.2l-51.77 71.41c0,0 -39.27,43.29 -12.05,82.12 27.23,38.83 111.58,32.58 111.58,32.58 0,0 41.51,-1.79 46.86,-47.31 5.36,-45.52 -5.36,-112.47 -5.36,-112.47l-89.26 -26.33z"/>
  <path class="fil6 str1" d="M555.26 805.56c-12.49,-63.38 71.41,-117.38 129.88,-112.03 58.47,5.36 40.61,9.82 95.51,12.5 54.9,2.68 118.72,34.82 152.64,99.97 33.92,65.16 -8.93,147.28 -64.72,143.26 -39,-2.81 -78.65,-24.6 -98.99,-37.45 -31.84,-20.13 -40.52,-42.49 -84.8,-47.31 -46.2,-5.02 -117.87,0.16 -129.52,-58.96z"/>
  <g id="_2741506992400">
   <path class="fil6 str3" d="M540.53 22.77c64.76,48.73 44.21,159.81 -24.08,174.03 -30.43,6.34 -51.85,-24.24 -62.03,-50.16 -13.62,-34.7 -6.05,-92.82 15.72,-121.14 22.14,-28.8 45.4,-21.53 70.4,-2.73z"/>
   <path class="fil3 str3" d="M511.98 44.16c0,0 -6.94,32.98 2.33,57.55 9.27,24.57 13.74,37.96 15.52,46.88"/>
  </g>
 </g>
</svg>
